<svg xmlns="http://www.w3.org/2000/svg" xmlns:xlink="http://www.w3.org/1999/xlink" width="1000" zoomAndPan="magnify" viewBox="0 0 750 374.999991" height="500" preserveAspectRatio="xMidYMid meet" version="1.0"><defs><clipPath id="bb01c1188d"><path d="M 75 0 L 675 0 C 716.421875 0 750 33.578125 750 75 L 750 300 C 750 341.421875 716.421875 375 675 375 L 75 375 C 33.578125 375 0 341.421875 0 300 L 0 75 C 0 33.578125 33.578125 0 75 0 Z M 75 0 " clip-rule="nonzero"/></clipPath><clipPath id="d1638431f1"><path d="M 160 117.667969 L 261 117.667969 L 261 218 L 160 218 Z M 160 117.667969 " clip-rule="nonzero"/></clipPath></defs><g clip-path="url(#bb01c1188d)"><rect x="-75" width="900" fill="#0d1b49" y="-37.499999" height="449.999989" fill-opacity="1"/></g><path fill="#2a53da" d="M 174.996094 187.828125 L 120.417969 160.433594 L 160.113281 140.476562 L 144.980469 132.792969 L 90.027344 160.433594 L 174.996094 203.070312 L 190.132812 195.515625 Z M 174.996094 187.828125 " fill-opacity="1" fill-rule="nonzero"/><path fill="#81f037" d="M 177.972656 256.125 L 128.976562 231.582031 L 128.976562 189.5625 L 142.621094 196.382812 L 142.621094 223.152344 L 177.972656 240.878906 L 223.25 218.320312 L 223.25 233.441406 Z M 177.972656 256.125 " fill-opacity="1" fill-rule="nonzero"/><g clip-path="url(#d1638431f1)"><path fill="#2a53da" d="M 215.929688 184.109375 L 214.3125 183.238281 L 218.78125 181.007812 L 260.085938 160.308594 L 175.117188 117.667969 L 160.109375 125.230469 L 186.777344 138.742188 L 186.777344 138.867188 L 229.820312 160.429688 L 190.25 180.265625 L 202.53125 186.464844 C 204.269531 187.328125 205.507812 189.191406 205.507812 191.171875 L 205.507812 217.699219 L 219.027344 210.882812 L 219.027344 188.570312 C 218.660156 185.472656 215.929688 184.109375 215.929688 184.109375 Z M 215.929688 184.109375 " fill-opacity="1" fill-rule="nonzero"/></g><path fill="#ffffff" d="M 306.640625 122.933594 L 318.640625 122.933594 L 349.878906 203.238281 L 336.523438 203.238281 L 328.035156 181.410156 L 297.019531 181.410156 L 288.644531 203.238281 L 275.175781 203.238281 Z M 325.542969 172.023438 L 312.640625 136.84375 L 299.285156 172.023438 Z M 325.542969 172.023438 " fill-opacity="1" fill-rule="nonzero"/><path fill="#ffffff" d="M 406.25 141.820312 C 405.496094 140.992188 404.402344 140.125 402.96875 139.21875 C 401.535156 138.242188 399.835938 137.335938 397.875 136.507812 C 395.914062 135.675781 393.800781 134.996094 391.535156 134.46875 C 389.273438 133.941406 386.933594 133.679688 384.519531 133.679688 C 379.238281 133.679688 375.3125 134.660156 372.75 136.617188 C 370.183594 138.578125 368.898438 141.292969 368.898438 144.761719 C 368.898438 147.328125 369.617188 149.363281 371.050781 150.871094 C 372.484375 152.304688 374.671875 153.511719 377.613281 154.488281 C 380.558594 155.46875 384.253906 156.527344 388.707031 157.65625 C 394.140625 158.9375 398.855469 160.484375 402.855469 162.292969 C 406.855469 164.027344 409.910156 166.367188 412.023438 169.308594 C 414.136719 172.25 415.191406 176.132812 415.191406 180.957031 C 415.191406 185.03125 414.4375 188.535156 412.929688 191.476562 C 411.417969 194.417969 409.308594 196.832031 406.589844 198.714844 C 403.875 200.523438 400.742188 201.882812 397.195312 202.789062 C 393.648438 203.617188 389.839844 204.03125 385.765625 204.03125 C 381.765625 204.03125 377.765625 203.617188 373.765625 202.789062 C 369.84375 201.957031 366.070312 200.75 362.449219 199.167969 C 358.902344 197.507812 355.621094 195.511719 352.601562 193.171875 L 358.375 182.316406 C 359.355469 183.296875 360.75 184.386719 362.5625 185.59375 C 364.449219 186.726562 366.597656 187.820312 369.011719 188.875 C 371.503906 189.929688 374.183594 190.835938 377.050781 191.589844 C 379.992188 192.269531 382.972656 192.609375 385.992188 192.609375 C 391.046875 192.609375 394.894531 191.742188 397.535156 190.007812 C 400.253906 188.195312 401.609375 185.632812 401.609375 182.316406 C 401.609375 179.601562 400.742188 177.449219 399.007812 175.867188 C 397.273438 174.207031 394.742188 172.8125 391.421875 171.683594 C 388.105469 170.550781 384.140625 169.421875 379.539062 168.289062 C 374.257812 166.855469 369.84375 165.3125 366.296875 163.652344 C 362.75 161.917969 360.070312 159.730469 358.261719 157.089844 C 356.523438 154.378906 355.65625 150.945312 355.65625 146.800781 C 355.65625 141.519531 356.941406 137.070312 359.503906 133.453125 C 362.070312 129.757812 365.542969 127.003906 369.917969 125.195312 C 374.371094 123.308594 379.351562 122.367188 384.859375 122.367188 C 388.480469 122.367188 391.914062 122.78125 395.160156 123.613281 C 398.402344 124.367188 401.421875 125.421875 404.214844 126.777344 C 407.082031 128.136719 409.683594 129.683594 412.023438 131.417969 Z M 406.25 141.820312 " fill-opacity="1" fill-rule="nonzero"/><path fill="#ffffff" d="M 427.90625 203.238281 L 427.90625 122.933594 L 461.632812 122.933594 C 465.257812 122.933594 468.578125 123.6875 471.59375 125.195312 C 474.613281 126.703125 477.253906 128.703125 479.519531 131.191406 C 481.78125 133.679688 483.515625 136.46875 484.722656 139.558594 C 485.929688 142.652344 486.535156 145.820312 486.535156 149.0625 C 486.535156 153.511719 485.515625 157.769531 483.480469 161.84375 C 481.515625 165.839844 478.6875 169.082031 474.992188 171.570312 C 471.367188 174.058594 467.144531 175.300781 462.3125 175.300781 L 440.582031 175.300781 L 440.582031 203.238281 Z M 440.582031 164.105469 L 461.519531 164.105469 C 463.9375 164.105469 466.046875 163.464844 467.859375 162.179688 C 469.671875 160.824219 471.066406 159.015625 472.046875 156.753906 C 473.105469 154.488281 473.632812 151.925781 473.632812 149.0625 C 473.632812 146.121094 473.027344 143.519531 471.820312 141.257812 C 470.613281 138.996094 469.027344 137.261719 467.066406 136.054688 C 465.179688 134.773438 463.105469 134.128906 460.84375 134.128906 L 440.582031 134.128906 Z M 440.582031 164.105469 " fill-opacity="1" fill-rule="nonzero"/><path fill="#ffffff" d="M 498.425781 122.933594 L 511.101562 122.933594 L 511.101562 203.238281 L 498.425781 203.238281 Z M 498.425781 122.933594 " fill-opacity="1" fill-rule="nonzero"/><path fill="#ffffff" d="M 529.265625 203.238281 L 529.265625 122.933594 L 564.238281 122.933594 C 567.859375 122.933594 571.179688 123.6875 574.199219 125.195312 C 577.21875 126.703125 579.820312 128.703125 582.007812 131.191406 C 584.273438 133.679688 586.007812 136.46875 587.214844 139.558594 C 588.5 142.652344 589.140625 145.820312 589.140625 149.0625 C 589.140625 152.605469 588.5 156 587.214844 159.242188 C 585.933594 162.484375 584.082031 165.273438 581.667969 167.609375 C 579.332031 169.949219 576.574219 171.644531 573.40625 172.699219 L 592.308594 203.238281 L 578.046875 203.238281 L 560.617188 175.300781 L 541.941406 175.300781 L 541.941406 203.238281 Z M 541.941406 164.105469 L 564.125 164.105469 C 566.464844 164.105469 568.539062 163.425781 570.351562 162.070312 C 572.160156 160.710938 573.59375 158.902344 574.652344 156.640625 C 575.707031 154.300781 576.238281 151.777344 576.238281 149.0625 C 576.238281 146.269531 575.632812 143.78125 574.425781 141.597656 C 573.21875 139.332031 571.632812 137.523438 569.671875 136.167969 C 567.785156 134.808594 565.710938 134.128906 563.445312 134.128906 L 541.941406 134.128906 Z M 541.941406 164.105469 " fill-opacity="1" fill-rule="nonzero"/><path fill="#ffffff" d="M 659.214844 192.042969 L 659.214844 203.238281 L 604.09375 203.238281 L 604.09375 122.933594 L 658.199219 122.933594 L 658.199219 134.128906 L 616.773438 134.128906 L 616.773438 156.980469 L 652.652344 156.980469 L 652.652344 167.496094 L 616.773438 167.496094 L 616.773438 192.042969 Z M 659.214844 192.042969 " fill-opacity="1" fill-rule="nonzero"/><path fill="#ffffff" d="M 275.175781 236.9375 C 275.175781 235.222656 275.46875 233.546875 276.046875 231.910156 C 276.65625 230.246094 277.527344 228.742188 278.664062 227.394531 C 279.824219 226.023438 281.238281 224.941406 282.902344 224.148438 C 284.566406 223.332031 286.453125 222.921875 288.566406 222.921875 C 291.074219 222.921875 293.226562 223.503906 295.023438 224.664062 C 296.820312 225.800781 298.152344 227.265625 299.023438 229.058594 L 296.210938 230.878906 C 295.65625 229.691406 294.945312 228.753906 294.074219 228.070312 C 293.226562 227.355469 292.304688 226.855469 291.300781 226.566406 C 290.324219 226.273438 289.359375 226.128906 288.40625 226.128906 C 286.851562 226.128906 285.464844 226.445312 284.25 227.078125 C 283.058594 227.710938 282.054688 228.558594 281.238281 229.613281 C 280.417969 230.667969 279.796875 231.855469 279.375 233.175781 C 278.980469 234.46875 278.78125 235.773438 278.78125 237.09375 C 278.78125 238.546875 279.019531 239.945312 279.496094 241.292969 C 279.996094 242.636719 280.683594 243.824219 281.554688 244.855469 C 282.425781 245.882812 283.457031 246.703125 284.644531 247.308594 C 285.832031 247.914062 287.128906 248.21875 288.527344 248.21875 C 289.503906 248.21875 290.507812 248.046875 291.539062 247.703125 C 292.566406 247.363281 293.53125 246.832031 294.429688 246.121094 C 295.328125 245.382812 296.039062 244.433594 296.570312 243.269531 L 299.539062 244.894531 C 298.957031 246.292969 298.0625 247.480469 296.847656 248.457031 C 295.632812 249.433594 294.269531 250.171875 292.765625 250.671875 C 291.285156 251.175781 289.820312 251.425781 288.367188 251.425781 C 286.441406 251.425781 284.671875 251.015625 283.058594 250.199219 C 281.449219 249.355469 280.050781 248.246094 278.859375 246.875 C 277.699219 245.472656 276.789062 243.917969 276.128906 242.203125 C 275.492188 240.460938 275.175781 238.703125 275.175781 236.9375 Z M 275.175781 236.9375 " fill-opacity="1" fill-rule="nonzero"/><path fill="#ffffff" d="M 317.480469 251.386719 C 315.5 251.386719 313.703125 250.992188 312.09375 250.199219 C 310.480469 249.40625 309.082031 248.335938 307.894531 246.992188 C 306.730469 245.621094 305.832031 244.089844 305.199219 242.398438 C 304.566406 240.683594 304.25 238.929688 304.25 237.132812 C 304.25 235.261719 304.578125 233.480469 305.238281 231.789062 C 305.925781 230.074219 306.863281 228.558594 308.050781 227.238281 C 309.265625 225.890625 310.679688 224.835938 312.289062 224.070312 C 313.902344 223.277344 315.65625 222.882812 317.558594 222.882812 C 319.539062 222.882812 321.335938 223.292969 322.945312 224.109375 C 324.558594 224.929688 325.945312 226.023438 327.105469 227.394531 C 328.269531 228.769531 329.167969 230.300781 329.800781 231.988281 C 330.433594 233.675781 330.75 235.40625 330.75 237.175781 C 330.75 239.046875 330.421875 240.84375 329.761719 242.558594 C 329.101562 244.246094 328.164062 245.765625 326.949219 247.109375 C 325.757812 248.429688 324.359375 249.472656 322.75 250.238281 C 321.136719 251.003906 319.382812 251.386719 317.480469 251.386719 Z M 307.851562 237.132812 C 307.851562 238.558594 308.078125 239.945312 308.527344 241.292969 C 309.003906 242.609375 309.664062 243.785156 310.507812 244.816406 C 311.351562 245.84375 312.371094 246.660156 313.558594 247.269531 C 314.746094 247.875 316.066406 248.179688 317.519531 248.179688 C 319.023438 248.179688 320.371094 247.863281 321.558594 247.230469 C 322.75 246.597656 323.753906 245.75 324.570312 244.695312 C 325.414062 243.640625 326.050781 242.453125 326.472656 241.132812 C 326.921875 239.8125 327.144531 238.480469 327.144531 237.132812 C 327.144531 235.710938 326.90625 234.335938 326.433594 233.015625 C 325.984375 231.699219 325.324219 230.523438 324.453125 229.492188 C 323.605469 228.4375 322.589844 227.621094 321.402344 227.039062 C 320.238281 226.433594 318.945312 226.128906 317.519531 226.128906 C 316.015625 226.128906 314.667969 226.445312 313.480469 227.078125 C 312.289062 227.6875 311.273438 228.515625 310.429688 229.574219 C 309.609375 230.628906 308.976562 231.816406 308.527344 233.136719 C 308.078125 234.429688 307.851562 235.761719 307.851562 237.132812 Z M 307.851562 237.132812 " fill-opacity="1" fill-rule="nonzero"/><path fill="#ffffff" d="M 338.082031 251.1875 L 338.082031 223.082031 L 347.828125 223.082031 C 350.835938 223.082031 353.347656 223.714844 355.351562 224.980469 C 357.386719 226.222656 358.90625 227.910156 359.910156 230.046875 C 360.914062 232.160156 361.414062 234.507812 361.414062 237.09375 C 361.414062 239.945312 360.859375 242.425781 359.75 244.539062 C 358.640625 246.648438 357.070312 248.285156 355.035156 249.445312 C 353.003906 250.609375 350.601562 251.1875 347.828125 251.1875 Z M 357.808594 237.09375 C 357.808594 234.984375 357.414062 233.109375 356.621094 231.472656 C 355.855469 229.835938 354.734375 228.558594 353.253906 227.632812 C 351.773438 226.710938 349.964844 226.246094 347.828125 226.246094 L 341.648438 226.246094 L 341.648438 248.019531 L 347.828125 248.019531 C 349.992188 248.019531 351.816406 247.546875 353.292969 246.597656 C 354.773438 245.621094 355.894531 244.3125 356.660156 242.675781 C 357.425781 241.015625 357.808594 239.152344 357.808594 237.09375 Z M 357.808594 237.09375 " fill-opacity="1" fill-rule="nonzero"/><path fill="#ffffff" d="M 368.816406 223.082031 L 372.378906 223.082031 L 372.378906 251.1875 L 368.816406 251.1875 Z M 368.816406 223.082031 " fill-opacity="1" fill-rule="nonzero"/><path fill="#ffffff" d="M 385.046875 229.652344 L 385.046875 251.1875 L 381.480469 251.1875 L 381.480469 223.082031 L 384.492188 223.082031 L 401.6875 245.050781 L 401.6875 223.121094 L 405.25 223.121094 L 405.25 251.1875 L 402.003906 251.1875 Z M 385.046875 229.652344 " fill-opacity="1" fill-rule="nonzero"/><path fill="#ffffff" d="M 425.632812 251.386719 C 423.785156 251.386719 422.054688 250.992188 420.445312 250.199219 C 418.859375 249.378906 417.472656 248.296875 416.285156 246.953125 C 415.097656 245.578125 414.171875 244.050781 413.511719 242.359375 C 412.851562 240.644531 412.519531 238.875 412.519531 237.054688 C 412.519531 235.15625 412.851562 233.359375 413.511719 231.671875 C 414.171875 229.957031 415.082031 228.4375 416.246094 227.117188 C 417.433594 225.800781 418.820312 224.769531 420.40625 224.03125 C 422.015625 223.265625 423.757812 222.882812 425.632812 222.882812 C 428.355469 222.882812 430.597656 223.449219 432.367188 224.585938 C 434.136719 225.71875 435.472656 227.199219 436.371094 229.019531 L 433.636719 230.917969 C 432.816406 229.28125 431.695312 228.070312 430.269531 227.277344 C 428.84375 226.484375 427.269531 226.089844 425.554688 226.089844 C 424.128906 226.089844 422.835938 226.394531 421.671875 227 C 420.511719 227.605469 419.507812 228.4375 418.660156 229.492188 C 417.84375 230.523438 417.210938 231.699219 416.761719 233.015625 C 416.335938 234.335938 416.125 235.710938 416.125 237.132812 C 416.125 238.640625 416.363281 240.0625 416.839844 241.410156 C 417.339844 242.730469 418.042969 243.902344 418.9375 244.933594 C 419.835938 245.9375 420.878906 246.726562 422.070312 247.308594 C 423.257812 247.890625 424.539062 248.179688 425.910156 248.179688 C 427.523438 248.179688 429.054688 247.769531 430.507812 246.953125 C 431.960938 246.132812 433.332031 244.878906 434.625 243.191406 L 434.625 246.875 C 432.089844 249.882812 429.09375 251.386719 425.632812 251.386719 Z M 434.191406 239.867188 L 428.128906 239.867188 L 428.128906 237.175781 L 437.203125 237.175781 L 437.203125 251.1875 L 434.191406 251.1875 Z M 434.191406 239.867188 " fill-opacity="1" fill-rule="nonzero"/><path fill="#ffffff" d="M 464.714844 223.082031 L 467.726562 223.082031 L 479.214844 251.1875 L 475.414062 251.1875 L 472.085938 242.953125 L 460.28125 242.953125 L 456.992188 251.1875 L 453.1875 251.1875 Z M 471.292969 240.183594 L 466.222656 227.199219 L 460.992188 240.183594 Z M 471.292969 240.183594 " fill-opacity="1" fill-rule="nonzero"/><path fill="#ffffff" d="M 482.480469 236.9375 C 482.480469 235.222656 482.769531 233.546875 483.351562 231.910156 C 483.957031 230.246094 484.828125 228.742188 485.964844 227.394531 C 487.128906 226.023438 488.539062 224.941406 490.203125 224.148438 C 491.867188 223.332031 493.757812 222.921875 495.871094 222.921875 C 498.378906 222.921875 500.53125 223.503906 502.328125 224.664062 C 504.121094 225.800781 505.457031 227.265625 506.328125 229.058594 L 503.515625 230.878906 C 502.960938 229.691406 502.246094 228.753906 501.375 228.070312 C 500.53125 227.355469 499.605469 226.855469 498.601562 226.566406 C 497.625 226.273438 496.660156 226.128906 495.710938 226.128906 C 494.152344 226.128906 492.765625 226.445312 491.550781 227.078125 C 490.363281 227.710938 489.359375 228.558594 488.539062 229.613281 C 487.722656 230.667969 487.101562 231.855469 486.679688 233.175781 C 486.28125 234.46875 486.085938 235.773438 486.085938 237.09375 C 486.085938 238.546875 486.320312 239.945312 486.796875 241.292969 C 487.300781 242.636719 487.984375 243.824219 488.855469 244.855469 C 489.730469 245.882812 490.757812 246.703125 491.949219 247.308594 C 493.136719 247.914062 494.429688 248.21875 495.828125 248.21875 C 496.808594 248.21875 497.808594 248.046875 498.839844 247.703125 C 499.871094 247.363281 500.835938 246.832031 501.730469 246.121094 C 502.628906 245.382812 503.34375 244.433594 503.871094 243.269531 L 506.84375 244.894531 C 506.261719 246.292969 505.363281 247.480469 504.148438 248.457031 C 502.933594 249.433594 501.574219 250.171875 500.070312 250.671875 C 498.589844 251.175781 497.125 251.425781 495.671875 251.425781 C 493.742188 251.425781 491.972656 251.015625 490.363281 250.199219 C 488.75 249.355469 487.351562 248.246094 486.164062 246.875 C 485 245.472656 484.089844 243.917969 483.429688 242.203125 C 482.796875 240.460938 482.480469 238.703125 482.480469 236.9375 Z M 482.480469 236.9375 " fill-opacity="1" fill-rule="nonzero"/><path fill="#ffffff" d="M 521.851562 223.082031 L 524.863281 223.082031 L 536.351562 251.1875 L 532.546875 251.1875 L 529.21875 242.953125 L 517.414062 242.953125 L 514.125 251.1875 L 510.324219 251.1875 Z M 528.425781 240.183594 L 523.355469 227.199219 L 518.128906 240.183594 Z M 528.425781 240.183594 " fill-opacity="1" fill-rule="nonzero"/><path fill="#ffffff" d="M 542.480469 251.1875 L 542.480469 223.082031 L 552.226562 223.082031 C 555.238281 223.082031 557.746094 223.714844 559.753906 224.980469 C 561.785156 226.222656 563.304688 227.910156 564.308594 230.046875 C 565.3125 232.160156 565.8125 234.507812 565.8125 237.09375 C 565.8125 239.945312 565.257812 242.425781 564.148438 244.539062 C 563.039062 246.648438 561.46875 248.285156 559.4375 249.445312 C 557.402344 250.609375 555 251.1875 552.226562 251.1875 Z M 562.207031 237.09375 C 562.207031 234.984375 561.8125 233.109375 561.019531 231.472656 C 560.253906 229.835938 559.132812 228.558594 557.652344 227.632812 C 556.175781 226.710938 554.367188 226.246094 552.226562 226.246094 L 546.046875 226.246094 L 546.046875 248.019531 L 552.226562 248.019531 C 554.390625 248.019531 556.214844 247.546875 557.691406 246.597656 C 559.171875 245.621094 560.292969 244.3125 561.058594 242.675781 C 561.824219 241.015625 562.207031 239.152344 562.207031 237.09375 Z M 562.207031 237.09375 " fill-opacity="1" fill-rule="nonzero"/><path fill="#ffffff" d="M 592.308594 248.019531 L 592.308594 251.1875 L 573.214844 251.1875 L 573.214844 223.082031 L 591.953125 223.082031 L 591.953125 226.246094 L 576.78125 226.246094 L 576.78125 235.351562 L 589.972656 235.351562 L 589.972656 238.320312 L 576.78125 238.320312 L 576.78125 248.019531 Z M 592.308594 248.019531 " fill-opacity="1" fill-rule="nonzero"/><path fill="#ffffff" d="M 623.902344 251.1875 L 623.902344 229.730469 L 614.628906 246.238281 L 612.453125 246.238281 L 603.140625 229.730469 L 603.140625 251.1875 L 599.578125 251.1875 L 599.578125 223.082031 L 603.339844 223.082031 L 613.523438 241.332031 L 623.742188 223.082031 L 627.464844 223.082031 L 627.464844 251.1875 Z M 623.902344 251.1875 " fill-opacity="1" fill-rule="nonzero"/><path fill="#ffffff" d="M 637.648438 223.082031 L 646.167969 237.726562 L 654.761719 223.082031 L 658.644531 223.082031 L 647.949219 240.933594 L 647.949219 251.1875 L 644.382812 251.1875 L 644.382812 240.855469 L 633.726562 223.082031 Z M 637.648438 223.082031 " fill-opacity="1" fill-rule="nonzero"/></svg>